<?xml version="1.0" encoding="UTF-8" standalone="no" ?>
<!DOCTYPE svg PUBLIC "-//W3C//DTD SVG 1.1//EN" "http://www.w3.org/Graphics/SVG/1.1/DTD/svg11.dtd">
<svg xmlns="http://www.w3.org/2000/svg" xmlns:xlink="http://www.w3.org/1999/xlink" version="1.1" width="30" height="24" viewBox="0 0 1080 1080" xml:space="preserve">
<desc>Created with Fabric.js 5.2.4</desc>
<defs>
</defs>
<rect x="0" y="0" width="100%" height="100%" fill="transparent"></rect>
<g transform="matrix(1 0 0 1 540 540)" id="408be2f3-9b22-413c-a70b-68f3ac6914ab"  >
<rect style="stroke: none; stroke-width: 1; stroke-dasharray: none; stroke-linecap: butt; stroke-dashoffset: 0; stroke-linejoin: miter; stroke-miterlimit: 4; fill: rgb(255,255,255); fill-rule: nonzero; opacity: 1; visibility: hidden;" vector-effect="non-scaling-stroke"  x="-540" y="-540" rx="0" ry="0" width="1080" height="1080" />
</g>
<g transform="matrix(1 0 0 1 540 540)" id="6bdc33e0-83e1-4017-9137-44c908fad655"  >
</g>
<g transform="matrix(1 0 0 1 540 540)"  >
<g style="" vector-effect="non-scaling-stroke"   >
		<g transform="matrix(19 0 0 19 -230.47 -230.45)"  >
<path style="stroke: none; stroke-width: 1; stroke-dasharray: none; stroke-linecap: butt; stroke-dashoffset: 0; stroke-linejoin: miter; stroke-miterlimit: 4; fill: rgb(128,128,128); fill-rule: nonzero; opacity: 1;" vector-effect="non-scaling-stroke"  transform=" translate(-8.92, -8.92)" d="M 1.468 17.849 C 2.268 17.849 2.9370000000000003 17.201 2.9370000000000003 16.4 L 2.9370000000000003 6.858 C 2.9370000000000003 4.685 4.682 2.937 6.854 2.937 L 16.398 2.937 C 17.198 2.937 17.847 2.2689999999999997 17.847 1.4679999999999997 C 17.847 0.667 17.199 0 16.398 0 L 6.854 0 C 3.084 0 0 3.088 0 6.858 L 0 16.401 C 0 17.201 0.668 17.849 1.468 17.849 z" stroke-linecap="round" />
</g>
		<g transform="matrix(19 0 0 19 230.64 -230.44)"  >
<path style="stroke: none; stroke-width: 1; stroke-dasharray: none; stroke-linecap: butt; stroke-dashoffset: 0; stroke-linejoin: miter; stroke-miterlimit: 4; fill: rgb(128,128,128); fill-rule: nonzero; opacity: 1;" vector-effect="non-scaling-stroke"  transform=" translate(-33.2, -8.93)" d="M 35.273 0 L 25.73 0 C 24.929000000000002 0 24.281 0.668 24.281 1.468 C 24.281 2.268 24.929 2.9370000000000003 25.73 2.9370000000000003 L 35.272999999999996 2.9370000000000003 C 37.446 2.9370000000000003 39.217999999999996 4.686 39.217999999999996 6.8580000000000005 L 39.217999999999996 16.401 C 39.217999999999996 17.201 39.864 17.85 40.663999999999994 17.85 C 41.46399999999999 17.85 42.10999999999999 17.202 42.10999999999999 16.401 L 42.10999999999999 6.858 C 42.11 3.088 39.043 0 35.273 0 z" stroke-linecap="round" />
</g>
		<g transform="matrix(19 0 0 19 -230.47 230.68)"  >
<path style="stroke: none; stroke-width: 1; stroke-dasharray: none; stroke-linecap: butt; stroke-dashoffset: 0; stroke-linejoin: miter; stroke-miterlimit: 4; fill: rgb(128,128,128); fill-rule: nonzero; opacity: 1;" vector-effect="non-scaling-stroke"  transform=" translate(-8.92, -33.2)" d="M 16.398 39.219 L 6.855 39.219 C 4.682 39.219 2.9370000000000003 37.448 2.9370000000000003 35.277 L 2.9370000000000003 25.733 C 2.9370000000000003 24.934 2.269 24.285 1.4680000000000002 24.285 C 0.667 24.284 0 24.932 0 25.732 L 0 35.275999999999996 C 0 39.047 3.085 42.11 6.855 42.11 L 16.398 42.11 C 17.198 42.11 17.847 41.464 17.847 40.664 C 17.847 39.864 17.198 39.219 16.398 39.219 z" stroke-linecap="round" />
</g>
		<g transform="matrix(19 0 0 19 230.64 230.67)"  >
<path style="stroke: none; stroke-width: 1; stroke-dasharray: none; stroke-linecap: butt; stroke-dashoffset: 0; stroke-linejoin: miter; stroke-miterlimit: 4; fill: rgb(128,128,128); fill-rule: nonzero; opacity: 1;" vector-effect="non-scaling-stroke"  transform=" translate(-33.2, -33.2)" d="M 40.664 24.284 C 39.864000000000004 24.284 39.219 24.930999999999997 39.219 25.732 L 39.219 35.275999999999996 C 39.219 37.44799999999999 37.446 39.217999999999996 35.272 39.217999999999996 L 25.729 39.217999999999996 C 24.93 39.217999999999996 24.281 39.864 24.281 40.663999999999994 C 24.281 41.46399999999999 24.927999999999997 42.10999999999999 25.729 42.10999999999999 L 35.272 42.10999999999999 C 39.043 42.10999999999999 42.11 39.04599999999999 42.11 35.275999999999996 L 42.11 25.732999999999997 C 42.11 24.932 41.465 24.284 40.664 24.284 z" stroke-linecap="round" />
</g>
		<g transform="matrix(19 0 0 19 0 -0.01)"  >
<path style="stroke: none; stroke-width: 1; stroke-dasharray: none; stroke-linecap: butt; stroke-dashoffset: 0; stroke-linejoin: miter; stroke-miterlimit: 4; fill: rgb(128,128,128); fill-rule: nonzero; opacity: 1;" vector-effect="non-scaling-stroke"  transform=" translate(-21.05, -21.05)" d="M 34.655 10.812 C 34.655 8.957999999999998 33.152 7.454999999999999 31.299 7.454999999999999 L 10.812 7.454999999999999 C 8.957999999999998 7.454999999999999 7.454999999999999 8.957999999999998 7.454999999999999 10.812 L 7.454999999999999 31.296999999999997 C 7.454999999999999 33.150999999999996 8.957999999999998 34.653999999999996 10.812 34.653999999999996 L 31.296999999999997 34.653999999999996 C 33.150999999999996 34.653999999999996 34.653999999999996 33.150999999999996 34.653999999999996 31.296999999999997 L 34.655 10.812 L 34.655 10.812 z" stroke-linecap="round" />
</g>
</g>
</g>
<g transform="matrix(4.02 0 0 4.02 540 540)" id="0cdfef7d-a5d5-485e-be0b-eddcec07eb69"  >
<path style="stroke: rgb(0,0,0); stroke-width: 0; stroke-dasharray: none; stroke-linecap: butt; stroke-dashoffset: 0; stroke-linejoin: miter; stroke-miterlimit: 4; fill: rgb(0,128,0); fill-rule: nonzero; opacity: 1;" vector-effect="non-scaling-stroke"  transform=" translate(-50, -50)" d="M 14.148 44.105 L 18.091 40.162 C 20.01 38.242 23.176000000000002 38.242 25.096 40.162 L 42.164 57.230999999999995 L 74.904 24.440999999999995 C 76.823 22.521999999999995 79.98899999999999 22.521999999999995 81.90899999999999 24.440999999999995 L 85.851 28.383999999999997 C 87.771 30.302999999999997 87.771 33.415 85.851 35.334999999999994 L 45.641 75.54499999999999 L 45.537 75.64899999999999 L 45.433 75.75299999999999 L 45.329 75.80499999999999 L 45.277 75.90899999999999 L 45.173 75.961 L 45.069 76.065 L 44.965 76.117 L 44.861000000000004 76.16900000000001 L 44.757000000000005 76.27400000000002 L 44.653000000000006 76.32400000000001 L 44.54900000000001 76.37800000000001 L 44.44500000000001 76.43000000000002 L 44.34100000000001 76.48200000000003 L 44.23700000000001 76.53400000000003 L 44.08000000000001 76.58600000000004 L 43.97600000000001 76.63800000000005 L 43.872000000000014 76.69000000000005 L 43.768000000000015 76.74200000000006 L 43.664000000000016 76.74200000000006 L 43.56000000000002 76.79400000000007 L 43.405000000000015 76.84700000000007 L 43.301000000000016 76.84700000000007 L 43.19700000000002 76.89900000000007 L 42.93800000000002 76.89900000000007 L 42.83400000000002 76.95100000000008 L 42.62600000000002 76.95100000000008 L 42.47100000000002 77.00300000000009 L 41.795000000000016 77.00300000000009 L 41.640000000000015 76.95100000000008 L 41.432000000000016 76.95100000000008 L 41.32800000000002 76.89900000000007 L 41.06900000000002 76.89900000000007 L 40.96500000000002 76.84700000000007 L 40.86100000000002 76.84700000000007 L 40.70600000000002 76.79400000000007 L 40.60200000000002 76.74200000000006 L 40.49800000000002 76.74200000000006 L 40.39400000000002 76.69000000000005 L 40.29000000000002 76.63800000000005 L 40.185000000000024 76.58600000000004 L 40.081000000000024 76.53400000000003 L 40.029000000000025 76.53400000000003 C 39.563000000000024 76.32500000000003 39.096000000000025 75.96200000000003 38.630000000000024 75.54800000000003 L 14.140000000000025 51.059000000000026 C 12.229 49.137 12.229 46.025 14.148 44.105 z" stroke-linecap="round" />
</g>
<g transform="matrix(NaN NaN NaN NaN 0 0)"  >
<g style=""   >
</g>
</g>
<g transform="matrix(NaN NaN NaN NaN 0 0)"  >
<g style=""   >
</g>
</g>
<g transform="matrix(NaN NaN NaN NaN 0 0)"  >
<g style=""   >
</g>
</g>
<g transform="matrix(NaN NaN NaN NaN 0 0)"  >
<g style=""   >
</g>
</g>
</svg>